<svg width="152" height="36" viewBox="0 0 152 36" fill="none" xmlns="http://www.w3.org/2000/svg">
<path fill-rule="evenodd" clip-rule="evenodd" d="M27.8333 18C27.8333 25.0877 22.0877 30.8333 15 30.8333C7.91234 30.8333 2.16666 25.0877 2.16666 18C2.16666 10.9123 7.91234 5.16666 15 5.16666C22.0877 5.16666 27.8333 10.9123 27.8333 18ZM30 18C30 26.2843 23.2843 33 15 33C6.71573 33 0 26.2843 0 18C0 9.71573 6.71573 3 15 3C23.2843 3 30 9.71573 30 18ZM23.2759 11.2759C23.2759 12.1329 22.5812 12.8276 21.7242 12.8276C20.8672 12.8276 20.1725 12.1329 20.1725 11.2759C20.1725 10.4189 20.8672 9.72418 21.7242 9.72418C22.5812 9.72418 23.2759 10.4189 23.2759 11.2759ZM10.4879 19.209C11.1556 21.7009 13.717 23.1797 16.2089 22.512C18.7008 21.8443 20.1796 19.2829 19.5119 16.791C18.8442 14.2991 16.2828 12.8203 13.7909 13.488C11.299 14.1557 9.82015 16.7171 10.4879 19.209ZM8.39503 19.7698C9.37244 23.4175 13.1219 25.5823 16.7696 24.6049C20.4174 23.6274 22.5821 19.878 21.6047 16.2302C20.6273 12.5825 16.8779 10.4177 13.2301 11.3952C9.58236 12.3726 7.41762 16.122 8.39503 19.7698Z" fill="url(#paint0_linear_1_2)"/>
<path d="M47.3154 23.1406L51.6699 8.51562H55.9102L49.4736 27H46.6807L47.3154 23.1406ZM43.3037 8.51562L47.6455 23.1406L48.3057 27H45.4873L39.0889 8.51562H43.3037ZM64.2383 23.9023V17.7832C64.2383 17.3431 64.1663 16.9665 64.0225 16.6533C63.8786 16.3317 63.6543 16.082 63.3496 15.9043C63.0534 15.7266 62.6683 15.6377 62.1943 15.6377C61.7881 15.6377 61.4368 15.7096 61.1406 15.8535C60.8444 15.9889 60.6159 16.1878 60.4551 16.4502C60.2943 16.7041 60.2139 17.0046 60.2139 17.3516H56.5576C56.5576 16.7676 56.693 16.2132 56.9639 15.6885C57.2347 15.1637 57.6283 14.7025 58.1445 14.3047C58.6608 13.8984 59.2744 13.5811 59.9854 13.3525C60.7048 13.124 61.5088 13.0098 62.3975 13.0098C63.4639 13.0098 64.4118 13.1875 65.2412 13.543C66.0706 13.8984 66.7223 14.4316 67.1963 15.1426C67.6787 15.8535 67.9199 16.7422 67.9199 17.8086V23.6865C67.9199 24.4398 67.9665 25.0576 68.0596 25.54C68.1527 26.014 68.2881 26.4287 68.4658 26.7842V27H64.7715C64.5938 26.6276 64.4583 26.1621 64.3652 25.6035C64.2806 25.0365 64.2383 24.4694 64.2383 23.9023ZM64.7207 18.6338L64.7461 20.7031H62.7021C62.2197 20.7031 61.8008 20.7581 61.4453 20.8682C61.0898 20.9782 60.7979 21.1348 60.5693 21.3379C60.3408 21.5326 60.1715 21.7611 60.0615 22.0234C59.96 22.2858 59.9092 22.5736 59.9092 22.8867C59.9092 23.1999 59.9811 23.4834 60.125 23.7373C60.2689 23.9827 60.4762 24.1774 60.7471 24.3213C61.0179 24.4567 61.3353 24.5244 61.6992 24.5244C62.2493 24.5244 62.7275 24.4144 63.1338 24.1943C63.54 23.9743 63.8532 23.7035 64.0732 23.3818C64.3018 23.0602 64.4202 22.7555 64.4287 22.4678L65.3936 24.0166C65.2581 24.3636 65.0719 24.7233 64.835 25.0957C64.6064 25.4681 64.3145 25.8193 63.959 26.1494C63.6035 26.471 63.1761 26.7376 62.6768 26.9492C62.1774 27.1523 61.585 27.2539 60.8994 27.2539C60.0277 27.2539 59.2363 27.0804 58.5254 26.7334C57.8229 26.3779 57.2643 25.8913 56.8496 25.2734C56.4434 24.6471 56.2402 23.9362 56.2402 23.1406C56.2402 22.4212 56.3757 21.7822 56.6465 21.2236C56.9173 20.665 57.3151 20.1953 57.8398 19.8145C58.373 19.4251 59.0374 19.1331 59.833 18.9385C60.6286 18.7354 61.5511 18.6338 62.6006 18.6338H64.7207ZM74.5977 7.5V27H70.9287V7.5H74.5977ZM77.0352 20.2715V20.0049C77.0352 18.9977 77.179 18.071 77.4668 17.2246C77.7546 16.3698 78.1735 15.6292 78.7236 15.0029C79.2738 14.3766 79.9508 13.89 80.7549 13.543C81.5589 13.1875 82.4814 13.0098 83.5225 13.0098C84.5635 13.0098 85.4902 13.1875 86.3027 13.543C87.1152 13.89 87.7965 14.3766 88.3467 15.0029C88.9053 15.6292 89.3285 16.3698 89.6162 17.2246C89.904 18.071 90.0479 18.9977 90.0479 20.0049V20.2715C90.0479 21.2702 89.904 22.1969 89.6162 23.0518C89.3285 23.8981 88.9053 24.6387 88.3467 25.2734C87.7965 25.8997 87.1195 26.3864 86.3154 26.7334C85.5114 27.0804 84.5889 27.2539 83.5479 27.2539C82.5068 27.2539 81.5801 27.0804 80.7676 26.7334C79.9635 26.3864 79.2822 25.8997 78.7236 25.2734C78.1735 24.6387 77.7546 23.8981 77.4668 23.0518C77.179 22.1969 77.0352 21.2702 77.0352 20.2715ZM80.6914 20.0049V20.2715C80.6914 20.847 80.7422 21.3844 80.8438 21.8838C80.9453 22.3831 81.1061 22.8232 81.3262 23.2041C81.5547 23.5765 81.8509 23.8685 82.2148 24.0801C82.5788 24.2917 83.0231 24.3975 83.5479 24.3975C84.0557 24.3975 84.4915 24.2917 84.8555 24.0801C85.2194 23.8685 85.5114 23.5765 85.7314 23.2041C85.9515 22.8232 86.1123 22.3831 86.2139 21.8838C86.3239 21.3844 86.3789 20.847 86.3789 20.2715V20.0049C86.3789 19.4463 86.3239 18.9215 86.2139 18.4307C86.1123 17.9313 85.9473 17.4912 85.7188 17.1104C85.4987 16.721 85.2067 16.4163 84.8428 16.1963C84.4788 15.9762 84.0387 15.8662 83.5225 15.8662C83.0062 15.8662 82.5661 15.9762 82.2021 16.1963C81.8467 16.4163 81.5547 16.721 81.3262 17.1104C81.1061 17.4912 80.9453 17.9313 80.8438 18.4307C80.7422 18.9215 80.6914 19.4463 80.6914 20.0049ZM100.991 13.2637H104.305V26.543C104.305 27.7956 104.025 28.8577 103.467 29.7295C102.917 30.6097 102.146 31.2741 101.156 31.7227C100.166 32.1797 99.015 32.4082 97.7031 32.4082C97.1276 32.4082 96.5182 32.332 95.875 32.1797C95.2402 32.0273 94.6309 31.7904 94.0469 31.4688C93.4714 31.1471 92.9889 30.7409 92.5996 30.25L94.2119 28.0918C94.6351 28.5827 95.126 28.9635 95.6846 29.2344C96.2432 29.5137 96.861 29.6533 97.5381 29.6533C98.1982 29.6533 98.7568 29.5306 99.2139 29.2852C99.6709 29.0482 100.022 28.6969 100.268 28.2314C100.513 27.7744 100.636 27.2201 100.636 26.5684V16.4375L100.991 13.2637ZM91.749 20.2969V20.0303C91.749 18.9808 91.876 18.0286 92.1299 17.1738C92.3923 16.3105 92.7604 15.57 93.2344 14.9521C93.7168 14.3343 94.3008 13.8561 94.9863 13.5176C95.6719 13.179 96.4463 13.0098 97.3096 13.0098C98.2236 13.0098 98.9896 13.179 99.6074 13.5176C100.225 13.8561 100.733 14.3385 101.131 14.9648C101.529 15.5827 101.838 16.3148 102.058 17.1611C102.286 17.999 102.464 18.9173 102.591 19.916V20.5C102.464 21.4564 102.273 22.3451 102.02 23.166C101.766 23.987 101.431 24.7064 101.017 25.3242C100.602 25.9336 100.086 26.4076 99.4678 26.7461C98.8584 27.0846 98.1305 27.2539 97.2842 27.2539C96.4378 27.2539 95.6719 27.0804 94.9863 26.7334C94.3092 26.3864 93.7295 25.8997 93.2471 25.2734C92.7646 24.6471 92.3923 23.9108 92.1299 23.0645C91.876 22.2181 91.749 21.2956 91.749 20.2969ZM95.4053 20.0303V20.2969C95.4053 20.8639 95.4603 21.3929 95.5703 21.8838C95.6803 22.3747 95.8496 22.8105 96.0781 23.1914C96.3151 23.5638 96.6071 23.8558 96.9541 24.0674C97.3096 24.2705 97.7285 24.3721 98.2109 24.3721C98.8796 24.3721 99.4255 24.2324 99.8486 23.9531C100.272 23.6654 100.589 23.2718 100.801 22.7725C101.012 22.2731 101.135 21.6976 101.169 21.0459V19.3828C101.152 18.8496 101.08 18.3714 100.953 17.9482C100.826 17.5166 100.648 17.1484 100.42 16.8438C100.191 16.5391 99.8952 16.3021 99.5312 16.1328C99.1673 15.9635 98.7357 15.8789 98.2363 15.8789C97.7539 15.8789 97.335 15.9889 96.9795 16.209C96.6325 16.4206 96.3405 16.7126 96.1035 17.085C95.875 17.4574 95.7015 17.8975 95.583 18.4053C95.4645 18.9046 95.4053 19.4463 95.4053 20.0303ZM110.805 16.2598V27H107.148V13.2637H110.589L110.805 16.2598ZM114.943 13.1748L114.88 16.5645C114.702 16.5391 114.486 16.5179 114.232 16.501C113.987 16.4756 113.763 16.4629 113.56 16.4629C113.043 16.4629 112.595 16.5306 112.214 16.666C111.841 16.793 111.528 16.9834 111.274 17.2373C111.029 17.4912 110.843 17.8001 110.716 18.1641C110.597 18.528 110.53 18.9427 110.513 19.4082L109.776 19.1797C109.776 18.291 109.865 17.4743 110.043 16.7295C110.221 15.9762 110.479 15.3203 110.817 14.7617C111.164 14.2031 111.588 13.7715 112.087 13.4668C112.586 13.1621 113.158 13.0098 113.801 13.0098C114.004 13.0098 114.211 13.0267 114.423 13.0605C114.634 13.0859 114.808 13.124 114.943 13.1748ZM123.652 23.9023V17.7832C123.652 17.3431 123.58 16.9665 123.437 16.6533C123.293 16.3317 123.068 16.082 122.764 15.9043C122.467 15.7266 122.082 15.6377 121.608 15.6377C121.202 15.6377 120.851 15.7096 120.555 15.8535C120.258 15.9889 120.03 16.1878 119.869 16.4502C119.708 16.7041 119.628 17.0046 119.628 17.3516H115.972C115.972 16.7676 116.107 16.2132 116.378 15.6885C116.649 15.1637 117.042 14.7025 117.559 14.3047C118.075 13.8984 118.688 13.5811 119.399 13.3525C120.119 13.124 120.923 13.0098 121.812 13.0098C122.878 13.0098 123.826 13.1875 124.655 13.543C125.485 13.8984 126.136 14.4316 126.61 15.1426C127.093 15.8535 127.334 16.7422 127.334 17.8086V23.6865C127.334 24.4398 127.381 25.0576 127.474 25.54C127.567 26.014 127.702 26.4287 127.88 26.7842V27H124.186C124.008 26.6276 123.872 26.1621 123.779 25.6035C123.695 25.0365 123.652 24.4694 123.652 23.9023ZM124.135 18.6338L124.16 20.7031H122.116C121.634 20.7031 121.215 20.7581 120.859 20.8682C120.504 20.9782 120.212 21.1348 119.983 21.3379C119.755 21.5326 119.586 21.7611 119.476 22.0234C119.374 22.2858 119.323 22.5736 119.323 22.8867C119.323 23.1999 119.395 23.4834 119.539 23.7373C119.683 23.9827 119.89 24.1774 120.161 24.3213C120.432 24.4567 120.749 24.5244 121.113 24.5244C121.663 24.5244 122.142 24.4144 122.548 24.1943C122.954 23.9743 123.267 23.7035 123.487 23.3818C123.716 23.0602 123.834 22.7555 123.843 22.4678L124.808 24.0166C124.672 24.3636 124.486 24.7233 124.249 25.0957C124.021 25.4681 123.729 25.8193 123.373 26.1494C123.018 26.471 122.59 26.7376 122.091 26.9492C121.591 27.1523 120.999 27.2539 120.313 27.2539C119.442 27.2539 118.65 27.0804 117.939 26.7334C117.237 26.3779 116.678 25.8913 116.264 25.2734C115.857 24.6471 115.654 23.9362 115.654 23.1406C115.654 22.4212 115.79 21.7822 116.061 21.2236C116.331 20.665 116.729 20.1953 117.254 19.8145C117.787 19.4251 118.451 19.1331 119.247 18.9385C120.043 18.7354 120.965 18.6338 122.015 18.6338H124.135ZM133.809 16.1074V27H130.14V13.2637H133.58L133.809 16.1074ZM133.301 19.6494H132.285C132.285 18.693 132.399 17.8128 132.628 17.0088C132.865 16.1963 133.208 15.4938 133.656 14.9014C134.113 14.3005 134.676 13.835 135.345 13.5049C136.013 13.1748 136.788 13.0098 137.668 13.0098C138.277 13.0098 138.836 13.1029 139.344 13.2891C139.852 13.4668 140.287 13.7503 140.651 14.1396C141.024 14.5205 141.312 15.0199 141.515 15.6377C141.718 16.2471 141.819 16.9792 141.819 17.834V27H138.163V18.2402C138.163 17.6139 138.078 17.1315 137.909 16.793C137.74 16.4544 137.499 16.2174 137.186 16.082C136.881 15.9466 136.513 15.8789 136.081 15.8789C135.607 15.8789 135.192 15.9762 134.837 16.1709C134.49 16.3656 134.202 16.6364 133.974 16.9834C133.745 17.3219 133.576 17.7197 133.466 18.1768C133.356 18.6338 133.301 19.1247 133.301 19.6494ZM141.477 19.2305L140.169 19.3955C140.169 18.4984 140.279 17.6647 140.499 16.8945C140.728 16.1243 141.062 15.4473 141.502 14.8633C141.951 14.2793 142.505 13.8265 143.165 13.5049C143.825 13.1748 144.587 13.0098 145.45 13.0098C146.11 13.0098 146.711 13.1071 147.253 13.3018C147.795 13.488 148.256 13.7884 148.637 14.2031C149.026 14.6094 149.322 15.1426 149.525 15.8027C149.737 16.4629 149.843 17.2712 149.843 18.2275V27H146.174V18.2275C146.174 17.5928 146.089 17.1104 145.92 16.7803C145.759 16.4417 145.522 16.209 145.209 16.082C144.904 15.9466 144.54 15.8789 144.117 15.8789C143.677 15.8789 143.292 15.9678 142.962 16.1455C142.632 16.3148 142.357 16.5518 142.137 16.8564C141.917 17.1611 141.752 17.5166 141.642 17.9229C141.532 18.3206 141.477 18.7565 141.477 19.2305Z" fill="#EFEFEF"/>
<defs>
<linearGradient id="paint0_linear_1_2" x1="15" y1="3" x2="15" y2="33" gradientUnits="userSpaceOnUse">
<stop stop-color="#FF6D79"/>
<stop offset="0.461458" stop-color="#FF4D5B"/>
<stop offset="1" stop-color="#D53435"/>
</linearGradient>
</defs>
</svg>
